<?xml version="1.0" encoding="UTF-8"?>
<svg id="layer2" xmlns="http://www.w3.org/2000/svg" viewBox="0 0 600.75 950">
  <defs>
    <style>
      .cls-1 {
        fill: #000;
        stroke-width: 0px;
      }
    </style>
  </defs>
  <path class="cls-1" d="M550.75,675c0,151.88-123.12,275-275,275-101.96,0-190.95-55.48-238.45-137.9l129.91-75.05c21.55,37.61,62.08,62.95,108.54,62.95,69.04,0,125-55.96,125-125s-55.96-125-125-125h-100v-150h100c69.04,0,125-55.96,125-125s-55.96-125-125-125c-46.69,0-87.39,25.59-108.85,63.51L36.89,138.61C84.29,55.8,173.5,0,275.75,0c151.88,0,275,123.12,275,275,0,78.8-33.14,149.86-86.25,200,53.11,50.14,86.25,121.2,86.25,200Z"/>
</svg>