<?xml version="1.0" encoding="UTF-8"?>
<svg id="layer1" xmlns="http://www.w3.org/2000/svg" viewBox="0 0 550 950.7">
  <defs>
    <style>
      .cls-1 {
        fill: #000;
        fill-rule: evenodd;
        stroke-width: 0px;
      }
    </style>
  </defs>
  <path class="cls-1" d="M275,400.71c-4.53,0-9.03.11-13.5.33L412.41,61.64,275.35.7,34.81,541.67l-.02.04-20.27,45.6c-2.51,7.37-4.7,14.89-6.58,22.53-5.19,21.1-7.94,43.16-7.94,65.87,0,151.88,123.12,275,275,275s275-123.12,275-275-123.12-275-275-275ZM275,800.7c-69.04,0-125-55.96-125-125,0-12.23,1.76-24.06,5.03-35.23,3.14-10.7,7.67-20.81,13.39-30.11,21.98-35.79,61.49-59.66,106.58-59.66,69.04,0,125,55.96,125,125s-55.96,125-125,125Z"/>
</svg>